<svg width="25" height="25" viewBox="0 0 25 25" fill="none" xmlns="http://www.w3.org/2000/svg">
<mask id="mask0_2_4682" style="mask-type:luminance" maskUnits="userSpaceOnUse" x="1" y="0" width="23" height="23">
<path d="M23.1769 9.375H12.4998V13.8021H18.6457C18.0728 16.6146 15.6769 18.2292 12.4998 18.2292C8.74984 18.2292 5.729 15.2083 5.729 11.4583C5.729 7.70833 8.74984 4.6875 12.4998 4.6875C14.1144 4.6875 15.5728 5.26042 16.7186 6.19792L20.0519 2.86458C18.0207 1.09375 15.4165 0 12.4998 0C6.14567 0 1.0415 5.10417 1.0415 11.4583C1.0415 17.8125 6.14567 22.9167 12.4998 22.9167C18.229 22.9167 23.4373 18.75 23.4373 11.4583C23.4373 10.7812 23.3332 10.0521 23.1769 9.375Z" fill="white"/>
</mask>
<g mask="url(#mask0_2_4682)">
<path d="M0 18.2292V4.6875L8.85417 11.4583L0 18.2292Z" fill="#FBBC05"/>
</g>
<mask id="mask1_2_4682" style="mask-type:luminance" maskUnits="userSpaceOnUse" x="1" y="0" width="23" height="23">
<path d="M23.1769 9.375H12.4998V13.8021H18.6457C18.0728 16.6146 15.6769 18.2292 12.4998 18.2292C8.74984 18.2292 5.729 15.2083 5.729 11.4583C5.729 7.70833 8.74984 4.6875 12.4998 4.6875C14.1144 4.6875 15.5728 5.26042 16.7186 6.19792L20.0519 2.86458C18.0207 1.09375 15.4165 0 12.4998 0C6.14567 0 1.0415 5.10417 1.0415 11.4583C1.0415 17.8125 6.14567 22.9167 12.4998 22.9167C18.229 22.9167 23.4373 18.75 23.4373 11.4583C23.4373 10.7812 23.3332 10.0521 23.1769 9.375Z" fill="white"/>
</mask>
<g mask="url(#mask1_2_4682)">
<path d="M0 4.68751L8.85417 11.4583L12.5 8.28126L25 6.25001V-1.04166H0V4.68751Z" fill="#EA4335"/>
</g>
<mask id="mask2_2_4682" style="mask-type:luminance" maskUnits="userSpaceOnUse" x="1" y="0" width="23" height="23">
<path d="M23.1769 9.375H12.4998V13.8021H18.6457C18.0728 16.6146 15.6769 18.2292 12.4998 18.2292C8.74984 18.2292 5.729 15.2083 5.729 11.4583C5.729 7.70833 8.74984 4.6875 12.4998 4.6875C14.1144 4.6875 15.5728 5.26042 16.7186 6.19792L20.0519 2.86458C18.0207 1.09375 15.4165 0 12.4998 0C6.14567 0 1.0415 5.10417 1.0415 11.4583C1.0415 17.8125 6.14567 22.9167 12.4998 22.9167C18.229 22.9167 23.4373 18.75 23.4373 11.4583C23.4373 10.7812 23.3332 10.0521 23.1769 9.375Z" fill="white"/>
</mask>
<g mask="url(#mask2_2_4682)">
<path d="M0 18.2292L15.625 6.25001L19.7396 6.77084L25 -1.04166V23.9583H0V18.2292Z" fill="#34A853"/>
</g>
<mask id="mask3_2_4682" style="mask-type:luminance" maskUnits="userSpaceOnUse" x="1" y="0" width="23" height="23">
<path d="M23.1769 9.375H12.4998V13.8021H18.6457C18.0728 16.6146 15.6769 18.2292 12.4998 18.2292C8.74984 18.2292 5.729 15.2083 5.729 11.4583C5.729 7.70833 8.74984 4.6875 12.4998 4.6875C14.1144 4.6875 15.5728 5.26042 16.7186 6.19792L20.0519 2.86458C18.0207 1.09375 15.4165 0 12.4998 0C6.14567 0 1.0415 5.10417 1.0415 11.4583C1.0415 17.8125 6.14567 22.9167 12.4998 22.9167C18.229 22.9167 23.4373 18.75 23.4373 11.4583C23.4373 10.7812 23.3332 10.0521 23.1769 9.375Z" fill="white"/>
</mask>
<g mask="url(#mask3_2_4682)">
<path d="M24.9997 23.9583L8.85384 11.4583L6.77051 9.89583L24.9997 4.6875V23.9583Z" fill="#4285F4"/>
</g>
</svg>
